<?xml version="1.0" standalone="no"?>
<!DOCTYPE svg PUBLIC "-//W3C//DTD SVG 20010904//EN"
 "http://www.w3.org/TR/2001/REC-SVG-20010904/DTD/svg10.dtd">
<svg version="1.0" xmlns="http://www.w3.org/2000/svg"
 width="384.000000pt" height="384.000000pt" viewBox="0 0 384.000000 384.000000"
 preserveAspectRatio="xMidYMid meet">

<g transform="translate(0.000000,384.000000) scale(0.100000,-0.100000)"
fill="#000000" stroke="none">
<path d="M2320 3498 c-50 -34 -72 -71 -78 -126 -6 -63 24 -120 78 -151 36 -20
51 -21 346 -21 l309 0 -75 -72 c-235 -225 -1274 -1267 -1286 -1290 -21 -40
-18 -117 6 -156 23 -37 71 -69 116 -78 70 -13 85 0 790 706 l674 675 0 -308
c0 -329 1 -339 52 -382 39 -33 66 -45 105 -45 50 0 112 36 137 80 20 34 21 48
21 555 0 507 -1 521 -21 555 -11 19 -38 45 -60 57 -39 23 -39 23 -560 23
l-521 0 -33 -22z"/>
<path d="M751 3188 c-69 -9 -192 -62 -228 -97 -12 -11 -26 -21 -30 -21 -4 0
-27 -21 -50 -47 -50 -56 -96 -148 -112 -221 -8 -37 -11 -346 -11 -1040 0
-1069 -2 -1032 55 -1148 49 -100 169 -209 285 -260 43 -18 79 -19 1069 -22
1130 -3 1085 -5 1200 60 73 41 172 142 205 207 63 126 61 104 61 807 l0 640
-24 35 c-33 49 -73 69 -135 69 -63 0 -109 -27 -137 -80 -18 -33 -19 -70 -19
-648 0 -670 2 -643 -58 -710 -60 -66 10 -62 -1060 -62 -816 0 -975 2 -1003 14
-36 15 -89 66 -108 103 -8 16 -11 297 -11 998 0 884 2 979 16 1008 19 37 68
84 104 100 17 9 192 14 580 17 530 5 556 6 581 24 44 34 62 68 67 121 4 45 1
55 -30 95 -23 31 -46 48 -73 57 -49 14 -1034 16 -1134 1z"/>
</g>
</svg>
