<?xml version="1.0" standalone="no"?>
<!DOCTYPE svg PUBLIC "-//W3C//DTD SVG 20010904//EN"
 "http://www.w3.org/TR/2001/REC-SVG-20010904/DTD/svg10.dtd">
<svg version="1.0" xmlns="http://www.w3.org/2000/svg"
 width="60.000000pt" height="60.000000pt" viewBox="0 0 60.000000 60.000000"
 preserveAspectRatio="xMidYMid meet">

<g transform="translate(0.000000,60.000000) scale(0.100000,-0.100000)"
fill="#000000" stroke="none">
<path d="M41 537 l-41 -63 0 -225 c0 -162 3 -228 12 -237 17 -17 559 -17 576
0 9 9 12 75 12 237 l0 225 -41 63 -41 63 -218 0 -218 0 -41 -63z m195 1 c-3
-13 -6 -29 -6 -35 0 -10 -24 -13 -85 -13 -47 0 -85 3 -85 6 0 3 9 19 21 35 19
27 24 29 91 29 68 0 70 -1 64 -22z m88 6 c14 -37 7 -54 -24 -54 -31 0 -38 17
-24 54 8 21 40 21 48 0z m195 -13 c12 -16 21 -32 21 -35 0 -3 -38 -6 -85 -6
-61 0 -85 3 -85 13 0 6 -3 22 -6 35 -6 21 -4 22 64 22 67 0 72 -2 91 -29z
m-289 -134 l0 -53 70 0 70 0 0 53 0 53 95 0 95 0 0 -205 0 -205 -260 0 -260 0
0 205 0 205 95 0 95 0 0 -53z m110 21 c0 -32 -2 -33 -40 -33 -39 -1 -40 0 -40
32 0 32 1 33 40 33 38 0 40 -1 40 -32z"/>
<path d="M374 249 l-91 -91 -32 51 c-31 47 -61 67 -61 39 0 -14 80 -138 89
-138 3 0 53 47 110 104 90 90 113 126 83 126 -4 0 -48 -41 -98 -91z"/>
</g>
</svg>
