<?xml version="1.0" standalone="no"?>
<!DOCTYPE svg PUBLIC "-//W3C//DTD SVG 20010904//EN"
 "http://www.w3.org/TR/2001/REC-SVG-20010904/DTD/svg10.dtd">
<svg version="1.0" xmlns="http://www.w3.org/2000/svg"
 width="384.000000pt" height="384.000000pt" viewBox="0 0 384.000000 384.000000"
 preserveAspectRatio="xMidYMid meet">

<g transform="translate(0.000000,384.000000) scale(0.100000,-0.100000)"
fill="#000000" stroke="none">
<path d="M1195 3649 c-209 -105 -553 -278 -764 -385 -211 -107 -390 -194 -397
-194 -7 0 -18 -9 -24 -19 -7 -13 -10 -278 -10 -791 l0 -771 24 -22 c13 -12 41
-31 63 -42 42 -21 116 -62 273 -153 58 -33 130 -73 160 -90 65 -35 116 -63
190 -105 30 -18 68 -38 83 -47 15 -8 130 -72 256 -142 125 -71 232 -128 236
-128 4 0 52 -25 108 -55 55 -30 112 -55 126 -55 38 1 72 33 73 70 1 37 -18 59
-82 93 -25 13 -88 48 -140 77 -52 29 -120 67 -150 83 -30 16 -60 34 -67 39 -7
5 -27 17 -45 27 -57 30 -173 94 -183 101 -5 4 -39 23 -75 42 -89 48 -143 79
-155 88 -5 4 -35 21 -65 37 -159 87 -343 190 -403 225 l-67 39 0 649 c0 358 4
650 8 650 5 0 132 -62 283 -138 l274 -139 3 -288 c2 -281 3 -290 24 -312 30
-33 80 -31 107 3 20 25 21 39 21 270 0 134 4 244 8 244 4 0 162 -76 350 -170
188 -93 350 -170 361 -170 10 0 334 158 720 350 386 193 706 350 711 350 6 0
10 -111 10 -285 l0 -286 25 -24 c42 -43 103 -28 125 29 14 38 14 693 -1 735
-6 17 -18 31 -26 31 -8 0 -358 173 -777 385 -420 212 -774 385 -787 385 -13 0
-195 -86 -404 -191z m669 -110 c144 -72 265 -135 269 -139 5 -4 -137 -79 -315
-168 -731 -362 -999 -492 -1016 -491 -9 0 -136 60 -282 133 l-265 134 70 32
c39 17 338 166 665 330 327 165 599 299 604 299 5 1 127 -58 270 -130z m700
-354 c126 -63 234 -115 241 -115 13 0 104 -46 118 -59 4 -5 -292 -158 -658
-342 l-666 -333 -300 149 c-166 83 -303 153 -305 157 -4 7 831 428 850 428 6
0 112 52 236 114 124 63 232 115 240 115 8 0 118 -51 244 -114z"/>
<path d="M2610 2071 c-97 -20 -161 -41 -240 -77 -53 -25 -170 -92 -180 -103
-3 -4 -21 -18 -41 -33 -61 -45 -160 -154 -213 -233 -168 -252 -221 -596 -136
-873 192 -622 887 -926 1455 -637 111 56 182 105 251 173 174 168 281 371 319
603 19 118 19 180 0 299 -21 127 -39 187 -90 297 -59 126 -101 186 -205 294
-233 240 -599 356 -920 290z m326 -155 c131 -23 255 -71 338 -130 16 -11 39
-28 50 -36 33 -23 196 -190 196 -200 0 -5 12 -26 26 -47 140 -205 171 -544 72
-773 -102 -234 -232 -374 -447 -480 -81 -40 -172 -66 -286 -80 -195 -24 -411
31 -584 150 -107 73 -248 236 -294 340 -75 167 -81 196 -82 370 0 158 6 195
48 315 140 395 557 642 963 571z"/>
<path d="M3097 1368 c-35 -40 -75 -86 -88 -102 -13 -16 -31 -37 -39 -46 -19
-20 -141 -160 -205 -235 -27 -32 -69 -79 -92 -104 l-41 -45 -135 137 c-82 82
-146 139 -163 143 -53 14 -105 -42 -91 -99 6 -21 228 -257 243 -257 3 0 30
-25 61 -55 78 -76 100 -76 183 8 34 34 106 112 159 172 53 61 100 115 106 121
9 10 38 44 160 185 22 25 55 63 74 85 18 21 37 49 42 63 19 49 -20 101 -77
101 -27 0 -42 -11 -97 -72z"/>
</g>
</svg>
