<?xml version="1.0" standalone="no"?>
<!DOCTYPE svg PUBLIC "-//W3C//DTD SVG 20010904//EN"
 "http://www.w3.org/TR/2001/REC-SVG-20010904/DTD/svg10.dtd">
<svg version="1.0" xmlns="http://www.w3.org/2000/svg"
 width="60.000000pt" height="60.000000pt" viewBox="0 0 60.000000 60.000000"
 preserveAspectRatio="xMidYMid meet">

<g transform="translate(0.000000,60.000000) scale(0.100000,-0.100000)"
fill="#000000" stroke="none">
<path d="M21 513 c-21 -17 -22 -25 -19 -183 l3 -165 31 -15 c17 -8 38 -27 47
-42 21 -36 59 -45 93 -23 15 9 29 26 31 36 5 17 15 19 93 19 78 0 88 -2 93
-19 2 -10 16 -27 31 -36 34 -22 72 -13 93 23 9 15 30 34 47 42 29 14 31 19 34
77 2 51 0 63 -17 75 -11 8 -26 39 -35 73 -8 33 -23 65 -33 72 -10 8 -47 13
-90 13 -65 0 -73 2 -73 19 0 44 -23 51 -170 51 -116 0 -141 -3 -159 -17z m299
-178 l0 -155 -57 0 c-35 1 -66 6 -77 15 -26 20 -70 19 -86 -1 -8 -8 -25 -14
-39 -12 l-26 3 -3 140 c-1 76 0 145 2 152 4 10 40 13 146 13 l140 0 0 -155z
m70 31 c0 -69 13 -80 103 -86 69 -5 99 -22 57 -33 -26 -7 -26 -27 0 -34 12 -3
19 -11 17 -17 -6 -17 -52 -19 -67 -2 -16 20 -60 21 -86 1 -10 -8 -29 -15 -41
-15 -23 0 -23 2 -23 120 0 113 1 120 20 120 18 0 20 -7 20 -54z m119 17 c15
-51 14 -63 -4 -63 -8 0 -15 7 -15 15 0 19 -24 19 -40 0 -19 -23 -30 -8 -30 41
l0 44 40 0 c37 0 40 -2 49 -37z m-345 -219 c19 -19 20 -26 4 -42 -18 -18 -46
-14 -58 7 -7 15 -6 23 6 35 19 20 29 20 48 0z m320 0 c12 -12 13 -20 6 -35
-12 -21 -40 -25 -58 -7 -16 16 -15 23 4 42 19 20 29 20 48 0z"/>
<path d="M180 406 c0 -11 -15 -16 -52 -18 l-53 -3 0 -50 0 -50 53 -3 c37 -2
52 -7 52 -18 0 -7 6 -14 13 -14 15 0 87 71 87 86 0 14 -73 84 -88 84 -7 0 -12
-7 -12 -14z m49 -60 c18 -22 -8 -33 -71 -28 -40 3 -58 8 -58 17 0 10 17 15 53
18 28 2 55 4 58 5 4 1 12 -4 18 -12z"/>
</g>
</svg>
