<?xml version="1.0" standalone="no"?>
<!DOCTYPE svg PUBLIC "-//W3C//DTD SVG 20010904//EN"
 "http://www.w3.org/TR/2001/REC-SVG-20010904/DTD/svg10.dtd">
<svg version="1.0" xmlns="http://www.w3.org/2000/svg"
 width="384.000000pt" height="384.000000pt" viewBox="0 0 384.000000 384.000000"
 preserveAspectRatio="xMidYMid meet">

<g transform="translate(0.000000,384.000000) scale(0.100000,-0.100000)"
fill="#000000" stroke="none">
<path d="M1340 3829 c-74 -30 -160 -149 -160 -223 0 -21 -5 -38 -12 -41 -7 -2
-47 -14 -88 -26 -41 -12 -82 -26 -90 -30 -8 -4 -49 -24 -90 -45 -153 -75 -258
-181 -341 -345 -35 -67 -99 -218 -99 -232 0 -5 -6 -23 -14 -40 -25 -55 -76
-213 -133 -412 -7 -27 -18 -63 -23 -80 -22 -74 -92 -380 -110 -480 -50 -277
-80 -511 -80 -625 0 -81 12 -122 48 -162 12 -14 14 -36 9 -110 -4 -72 -2 -100
10 -126 19 -40 66 -79 119 -99 143 -54 241 -84 319 -98 138 -25 149 -29 154
-50 2 -11 12 -32 22 -47 15 -21 19 -45 20 -120 0 -51 6 -108 13 -126 40 -112
231 -203 526 -252 419 -70 724 -71 1135 -4 290 47 465 122 532 227 23 37 25
49 24 138 -1 86 2 103 23 143 13 25 26 50 28 55 1 6 37 15 78 21 94 14 280 66
342 95 25 12 57 25 70 28 13 4 41 25 63 47 l40 41 0 112 c0 107 1 114 29 152
l28 40 -6 160 c-6 179 -37 400 -92 660 -93 440 -233 890 -354 1137 -102 207
-256 335 -504 420 l-111 38 -12 47 c-32 135 -123 222 -231 223 -23 0 -81 -14
-130 -30 -142 -50 -223 -63 -377 -64 -153 0 -234 14 -379 65 -83 30 -151 36
-196 18z m140 -110 c141 -54 280 -79 441 -79 153 0 264 20 424 77 63 22 74 23
108 12 73 -24 122 -152 81 -214 -19 -29 -127 -72 -280 -111 -103 -27 -121 -28
-329 -29 -240 0 -290 7 -471 66 -117 38 -156 64 -168 110 -17 69 61 189 124
189 8 0 40 -10 70 -21z m1270 -289 c238 -81 387 -227 486 -477 58 -147 96
-254 144 -413 11 -36 25 -78 30 -95 16 -52 91 -347 106 -420 70 -339 103 -555
111 -725 l5 -115 -48 -48 c-77 -75 -258 -153 -426 -181 l-36 -7 -6 93 c-3 51
-13 271 -21 488 -9 217 -20 492 -25 610 -6 118 -12 340 -14 492 -3 292 -6 308
-49 308 -11 0 -29 -7 -39 -17 -16 -14 -18 -35 -18 -205 l0 -188 -32 0 c-52 0
-120 -25 -199 -73 -187 -111 -221 -113 -374 -21 -138 82 -181 97 -264 92 -72
-4 -96 -14 -251 -104 -78 -45 -90 -49 -150 -49 -62 0 -70 3 -165 61 -124 74
-175 94 -247 94 -73 0 -112 -15 -233 -88 -55 -33 -113 -64 -129 -68 l-29 -7 6
160 c4 89 4 214 0 278 -6 110 -8 117 -30 128 -16 7 -30 7 -48 -1 l-25 -12 0
-237 c0 -131 -4 -326 -10 -433 -15 -285 -29 -602 -42 -973 l-12 -329 -35 7
c-135 24 -298 82 -376 136 -54 36 -91 78 -99 111 -17 72 40 483 113 823 45
210 62 274 138 525 58 192 178 512 194 518 5 2 9 9 9 15 0 22 72 122 123 169
60 57 140 112 205 139 26 12 61 26 77 34 17 7 54 19 83 26 52 13 52 13 85 -18
40 -38 68 -52 182 -91 199 -68 345 -88 575 -79 177 7 293 29 444 84 98 35 158
69 184 104 13 19 16 19 132 -21z m-1355 -1046 c28 -18 82 -49 120 -70 68 -38
73 -39 170 -39 84 0 106 4 135 21 208 125 210 126 285 122 65 -4 77 -8 162
-60 112 -70 165 -88 248 -88 78 0 120 16 240 89 70 42 101 55 141 59 l52 4 6
-78 c4 -44 13 -241 22 -439 8 -198 18 -424 21 -502 l6 -143 -59 0 c-85 0 -119
-12 -249 -90 -178 -105 -190 -105 -387 12 -173 102 -246 100 -444 -14 -182
-103 -179 -103 -410 30 -127 73 -236 75 -356 5 -158 -91 -183 -103 -227 -103
l-44 0 7 193 c4 105 12 289 17 407 6 118 14 291 18 385 l6 169 61 21 c34 12
94 42 135 67 127 78 128 79 204 76 59 -3 79 -8 120 -34z m1608 -1241 c6 -4 8
-79 4 -207 -9 -298 -25 -343 -152 -405 -208 -103 -526 -155 -940 -155 -411 0
-742 55 -943 158 -104 53 -128 101 -137 268 -3 51 -7 114 -10 141 l-4 47 42 0
c64 0 104 15 207 76 188 111 211 111 392 3 l123 -74 100 0 100 0 130 78 c180
107 196 106 396 -15 100 -60 105 -62 186 -66 75 -4 88 -2 140 24 32 15 77 41
100 56 23 15 44 28 48 28 3 0 23 11 44 24 21 13 49 26 62 29 27 6 97 0 112
-10z m566 -254 c-19 -38 -206 -114 -319 -130 -30 -4 -77 -11 -104 -15 -44 -6
-49 -5 -43 10 4 10 7 33 7 51 0 32 3 35 38 40 120 20 266 65 352 108 l65 32 6
-40 c4 -22 3 -47 -2 -56z m-3254 73 c61 -37 222 -88 371 -117 34 -6 44 -25 44
-79 0 -28 -1 -29 -42 -21 -24 4 -68 10 -98 15 -110 16 -263 72 -307 113 -23
20 -29 59 -17 91 8 20 12 20 49 -2z m648 -540 c158 -69 260 -95 497 -129 177
-25 751 -25 920 0 214 32 354 67 466 117 36 17 71 30 76 30 18 0 3 -98 -18
-121 -142 -157 -890 -252 -1398 -178 -436 63 -627 149 -601 269 8 35 5 35 58
12z"/>
<path d="M1780 1932 c-47 -15 -40 -66 17 -124 l47 -48 -47 -45 c-34 -32 -47
-52 -47 -73 0 -66 52 -69 116 -7 25 25 48 45 53 45 4 0 27 -20 51 -45 49 -50
80 -57 104 -23 24 34 20 45 -35 103 -27 29 -46 55 -41 56 16 7 92 100 92 113
0 24 -27 49 -54 49 -20 0 -42 -14 -75 -47 l-47 -46 -43 44 c-45 46 -65 56 -91
48z"/>
<path d="M2403 1929 c-25 -9 -38 -42 -26 -64 5 -8 28 -35 52 -60 l43 -45 -52
-52 c-44 -43 -51 -55 -45 -77 14 -56 57 -55 119 4 27 25 50 45 53 45 2 0 25
-20 50 -45 51 -51 84 -58 108 -21 20 30 12 51 -43 105 -25 24 -40 46 -35 50
21 13 93 103 93 115 0 24 -27 49 -54 49 -20 0 -42 -14 -75 -47 l-47 -46 -43
44 c-48 49 -66 57 -98 45z"/>
<path d="M1132 1918 c-25 -25 -13 -61 35 -110 l47 -48 -47 -48 c-52 -53 -62
-93 -28 -112 35 -18 54 -11 103 37 l48 47 48 -47 c50 -49 80 -58 106 -31 26
26 18 52 -30 104 l-47 50 47 50 c47 51 53 67 36 101 -19 34 -59 24 -112 -28
l-48 -47 -48 47 c-49 48 -85 60 -110 35z"/>
</g>
</svg>
