<?xml version="1.0" standalone="no"?>
<!DOCTYPE svg PUBLIC "-//W3C//DTD SVG 20010904//EN"
 "http://www.w3.org/TR/2001/REC-SVG-20010904/DTD/svg10.dtd">
<svg version="1.0" xmlns="http://www.w3.org/2000/svg"
 width="60.000000pt" height="60.000000pt" viewBox="0 0 60.000000 60.000000"
 preserveAspectRatio="xMidYMid meet">

<g transform="translate(0.000000,60.000000) scale(0.100000,-0.100000)"
fill="#000000" stroke="none">
<path d="M243 579 c-45 -13 -100 -71 -114 -120 -17 -56 0 -133 46 -208 36 -60
105 -131 127 -131 21 0 112 104 141 161 15 30 30 78 34 106 15 128 -110 230
-234 192z m134 -50 c96 -60 83 -198 -32 -324 l-45 -50 -45 50 c-114 126 -128
263 -33 324 44 27 110 28 155 0z"/>
<path d="M264 490 c-30 -12 -54 -49 -54 -83 0 -40 49 -87 90 -87 42 0 90 47
90 89 0 59 -71 105 -126 81z m74 -42 c21 -21 14 -66 -13 -84 -23 -15 -27 -15
-50 0 -17 11 -25 26 -25 44 0 35 16 52 50 52 14 0 31 -5 38 -12z"/>
<path d="M61 223 c-37 -142 -49 -198 -45 -205 7 -11 561 -11 568 0 4 7 -8 63
-45 205 -9 35 -13 38 -41 35 -37 -4 -49 -25 -17 -30 16 -2 25 -13 31 -37 5
-18 7 -35 4 -38 -2 -3 -21 7 -42 21 -28 19 -40 22 -46 13 -5 -7 0 -19 13 -30
12 -10 20 -19 18 -21 -2 -1 -41 -23 -86 -47 l-81 -43 -102 67 c-83 56 -101 72
-98 90 2 14 11 23 26 25 33 5 21 26 -16 30 -28 3 -32 0 -41 -35z m86 -124 c35
-23 63 -43 63 -45 0 -2 -35 -4 -79 -4 l-78 0 10 45 c6 25 13 45 15 45 3 0 34
-19 69 -41z m394 -27 c8 -22 7 -22 -79 -22 l-87 0 60 34 c65 37 89 34 106 -12z"/>
</g>
</svg>
