<?xml version="1.0" standalone="no"?>
<!DOCTYPE svg PUBLIC "-//W3C//DTD SVG 20010904//EN"
 "http://www.w3.org/TR/2001/REC-SVG-20010904/DTD/svg10.dtd">
<svg version="1.0" xmlns="http://www.w3.org/2000/svg"
 width="60.000000pt" height="60.000000pt" viewBox="0 0 60.000000 60.000000"
 preserveAspectRatio="xMidYMid meet">

<g transform="translate(0.000000,60.000000) scale(0.100000,-0.100000)"
fill="#000000" stroke="none">
<path d="M187 412 c-85 -85 -137 -145 -137 -157 0 -12 31 -51 75 -95 41 -41
75 -78 75 -82 0 -5 -19 -8 -41 -8 -36 0 -40 -2 -29 -15 18 -22 322 -22 340 0
11 13 2 15 -74 15 -47 0 -86 3 -86 8 0 4 54 61 120 127 75 75 120 127 120 140
0 27 -178 205 -205 205 -13 0 -73 -53 -158 -138z m56 -54 c-116 -116 -134
-130 -148 -118 -14 12 -2 28 117 147 118 118 134 131 148 118 13 -14 0 -30
-117 -147z m220 44 l57 -57 -133 -133 -132 -132 -60 60 -60 60 130 130 c71 72
132 130 135 130 3 0 31 -26 63 -58z"/>
<path d="M275 210 c-30 -31 -36 -43 -27 -52 9 -9 22 -2 57 32 42 41 49 60 21
60 -6 0 -30 -18 -51 -40z"/>
</g>
</svg>
