<?xml version="1.0" standalone="no"?>
<!DOCTYPE svg PUBLIC "-//W3C//DTD SVG 20010904//EN"
 "http://www.w3.org/TR/2001/REC-SVG-20010904/DTD/svg10.dtd">
<svg version="1.0" xmlns="http://www.w3.org/2000/svg"
 width="384.000000pt" height="384.000000pt" viewBox="0 0 384.000000 384.000000"
 preserveAspectRatio="xMidYMid meet">

<g transform="translate(0.000000,384.000000) scale(0.100000,-0.100000)"
fill="#000000" stroke="none">
<path d="M880 3441 c-30 -10 -69 -25 -87 -34 -49 -26 -116 -99 -154 -169 -34
-63 -34 -64 -37 -215 l-4 -153 -101 0 c-56 0 -128 -4 -160 -10 -131 -21 -238
-99 -298 -218 l-34 -67 -3 -925 c-3 -924 -3 -925 19 -990 36 -110 111 -190
226 -243 l48 -22 1290 -3 c953 -2 1304 0 1345 8 73 16 139 52 195 109 88 87
115 167 115 341 l0 128 148 4 c140 3 150 5 213 34 72 34 158 113 188 173 51
99 51 95 51 1033 0 987 3 946 -78 1065 -43 63 -80 97 -141 128 -92 46 -49 45
-1406 44 -1198 0 -1284 -1 -1335 -18z m2666 -158 c58 -31 106 -85 126 -141 15
-42 17 -130 17 -916 1 -985 4 -942 -75 -1022 -59 -59 -112 -74 -256 -74 l-118
0 0 696 c0 767 1 748 -63 854 -39 66 -116 130 -194 161 l-58 24 -1094 3 -1094
3 5 122 c4 93 10 133 25 167 31 68 87 118 163 141 14 4 599 7 1300 6 l1275 -2
41 -22z m-628 -579 c67 -22 115 -63 146 -126 l26 -52 0 -891 c0 -1015 5 -952
-82 -1030 -27 -24 -66 -49 -86 -55 -50 -14 -2553 -14 -2603 0 -48 14 -127 84
-150 135 -18 38 -19 89 -19 940 l0 900 24 50 c34 72 94 121 171 138 11 3 583
5 1271 6 1131 1 1257 -1 1302 -15z"/>
<path d="M495 2405 l-25 -24 0 -278 c0 -153 3 -288 6 -301 14 -49 36 -52 414
-52 378 0 400 3 414 52 3 13 6 148 6 301 l0 278 -25 24 -24 25 -371 0 -371 0
-24 -25z m665 -310 l0 -185 -270 0 -270 0 0 185 0 185 270 0 270 0 0 -185z"/>
<path d="M1700 1903 c-30 -11 -50 -37 -50 -64 0 -41 9 -58 41 -74 38 -20 170
-20 209 0 55 28 48 113 -11 134 -32 11 -162 14 -189 4z"/>
<path d="M2130 1903 c-53 -21 -69 -93 -29 -129 26 -23 173 -33 218 -14 50 20
64 78 30 120 -19 22 -29 24 -112 27 -51 1 -99 0 -107 -4z"/>
<path d="M2550 1897 c-54 -27 -56 -97 -5 -131 35 -23 177 -22 215 1 53 31 50
101 -5 127 -40 19 -169 21 -205 3z"/>
<path d="M493 1269 c-51 -19 -67 -97 -26 -130 20 -18 80 -16 98 2 54 54 -2
154 -72 128z"/>
<path d="M833 1269 c-27 -10 -53 -47 -53 -75 0 -64 92 -94 131 -43 24 31 24
60 -1 91 -23 30 -47 38 -77 27z"/>
<path d="M1180 1272 c-85 -26 -74 -146 14 -146 42 0 63 17 72 59 9 49 -42 101
-86 87z"/>
<path d="M1523 1270 c-12 -5 -29 -21 -39 -35 -22 -33 -9 -84 26 -102 20 -10
160 -12 636 -10 674 2 637 -1 650 65 4 22 0 36 -19 58 l-25 29 -604 2 c-337 1
-613 -2 -625 -7z"/>
<path d="M460 873 c-16 -20 -20 -36 -16 -58 10 -48 29 -55 147 -55 100 0 109
2 123 22 23 32 20 74 -6 98 -19 17 -35 20 -124 20 -100 0 -103 -1 -124 -27z"/>
<path d="M898 886 c-27 -20 -34 -71 -14 -101 16 -24 20 -25 131 -25 106 0 115
1 129 22 22 31 20 74 -4 98 -17 17 -33 20 -122 20 -70 -1 -109 -5 -120 -14z"/>
<path d="M2097 882 c-23 -25 -22 -85 1 -105 15 -14 40 -17 126 -17 100 0 109
2 127 23 24 29 24 58 -2 91 -20 25 -24 26 -128 26 -92 0 -110 -3 -124 -18z"/>
<path d="M2530 880 c-29 -29 -30 -72 -3 -102 14 -15 34 -18 122 -18 117 1 137
8 147 56 4 21 0 37 -16 57 -21 26 -24 27 -126 27 -91 0 -107 -3 -124 -20z"/>
</g>
</svg>
