<?xml version="1.0" standalone="no"?>
<!DOCTYPE svg PUBLIC "-//W3C//DTD SVG 20010904//EN"
 "http://www.w3.org/TR/2001/REC-SVG-20010904/DTD/svg10.dtd">
<svg version="1.0" xmlns="http://www.w3.org/2000/svg"
 width="384.000000pt" height="384.000000pt" viewBox="0 0 384.000000 384.000000"
 preserveAspectRatio="xMidYMid meet">

<g transform="translate(0.000000,384.000000) scale(0.100000,-0.100000)"
fill="#000000" stroke="none">
<path d="M1695 3830 c-214 -25 -449 -95 -636 -190 -89 -45 -277 -167 -349
-227 -64 -53 -238 -229 -285 -288 -22 -27 -44 -54 -50 -60 -48 -44 -168 -253
-233 -405 -45 -106 -82 -234 -114 -390 -30 -146 -32 -514 -4 -665 38 -206 85
-351 171 -530 65 -135 149 -268 213 -339 254 -280 443 -430 687 -545 401 -190
842 -235 1275 -131 411 99 734 305 1047 665 165 191 313 500 373 780 25 115
50 328 50 425 0 93 -25 312 -46 405 -63 279 -206 586 -343 740 -20 23 -49 56
-64 75 -63 78 -228 236 -312 299 -270 201 -488 298 -830 366 -93 19 -440 28
-550 15z m423 -225 c70 -9 152 -23 182 -32 246 -71 395 -135 541 -234 47 -32
92 -64 100 -71 8 -7 30 -25 49 -39 19 -15 66 -56 103 -93 38 -36 72 -66 75
-66 4 -1 23 -21 42 -46 19 -25 44 -55 54 -67 79 -91 212 -341 260 -487 66
-202 81 -306 81 -545 0 -244 -8 -297 -87 -565 -5 -19 -14 -39 -18 -45 -4 -5
-11 -21 -15 -35 -11 -37 -75 -166 -119 -240 -43 -72 -158 -229 -167 -230 -4 0
-9 15 -13 33 -20 101 -101 276 -189 407 -51 76 -205 238 -287 302 -61 47 -181
118 -260 152 -36 16 -66 30 -68 31 -1 1 34 38 79 81 91 88 145 163 188 256 38
83 47 115 66 228 41 238 -46 493 -229 676 -115 115 -258 186 -441 220 -176 32
-387 -8 -537 -102 -21 -13 -42 -24 -48 -24 -10 0 -31 -16 -102 -79 -91 -80
-189 -247 -225 -386 -26 -101 -24 -304 4 -401 47 -161 131 -296 255 -408 l71
-63 -39 -13 c-64 -22 -205 -100 -284 -159 -166 -124 -328 -319 -411 -496 -18
-38 -47 -112 -64 -164 l-31 -94 -70 94 c-185 248 -286 502 -328 824 -41 313 9
626 149 922 60 126 182 316 247 383 245 251 465 399 726 489 271 93 494 118
760 86z m-11 -643 c240 -92 393 -307 393 -552 0 -219 -126 -423 -322 -520
-132 -65 -264 -79 -417 -44 -57 14 -171 77 -225 126 -108 97 -175 220 -197
364 -16 105 4 222 57 333 68 141 214 261 374 306 78 21 266 14 337 -13z m2
-1388 c289 -52 542 -218 712 -466 32 -47 59 -89 59 -92 0 -3 14 -34 31 -68 37
-77 89 -248 89 -294 0 -28 -7 -39 -42 -64 -24 -17 -50 -36 -58 -43 -51 -41
-257 -156 -345 -192 -344 -141 -746 -162 -1105 -59 -90 26 -190 65 -265 102
-68 35 -180 98 -200 114 -5 4 -42 31 -82 60 -72 53 -72 53 -67 93 19 139 113
359 205 479 60 80 146 168 204 211 22 17 42 32 45 36 5 6 105 64 155 90 57 30
180 73 260 90 104 22 292 24 404 3z"/>
</g>
</svg>
